#!OML:ASF X:\für Bonn\!DataBase\2005_08_12_Daniel\c3d\Daniel.ASF
:FULLY-SPECIFIED
:DEGREES
2952
root -17.9948 17.4235 28.425 -180.01 317.476 -185.256
lowerback 15.3698 2.04016 -0.633545
upperback 2.50592 2.29929 -1.11963
thorax -5.92472 1.03418 -1.27957
lowerneck -3.50754 0.643358 -5.5555
upperneck 9.92424 0.716314 4.11223
head 3.85393 0.257811 2.40168
rclavicle 7.14382e-014 -2.28602e-014
rhumerus -47.7345 23.4695 -110.819
rradius 67.6389
rwrist 0.35571
rhand -15.8651 26.5207
rfingers 7.12502
rthumb 10.3302 -3.20556
lclavicle 7.14382e-014 -2.28602e-014
lhumerus -59.6618 -10.9756 94.1938
lradius 113.576
lwrist 26.9916
lhand 0.0905864 -9.12575
lfingers 7.12502
lthumb 25.6771 19.1625
rfemur -17.5758 5.98663 19.7411
rtibia 60.7209
rfoot -16.0724 -2.50182
rtoes -5.90506
lfemur -13.6566 -27.4968 -8.8971
ltibia 37.466
lfoot -15.1688 -13.8674
ltoes -17.1935
2953
root -18.1315 17.3493 28.5621 -180.365 319.811 -185.066
lowerback 15.4469 2.37169 -0.768965
upperback 2.57621 2.69711 -1.17901
thorax -5.88957 1.22523 -1.34677
lowerneck -3.19914 0.907647 -5.24943
upperneck 9.82366 1.06483 3.76589
head 3.73566 0.423873 2.2327
rclavicle 2.49475e-014 -2.70347e-014
rhumerus -47.6069 24.3354 -111.307
rradius 68.6799
rwrist 0.190641
rhand -15.877 26.3609
rfingers 7.12502
rthumb 10.3189 -3.36599
lclavicle 2.49475e-014 -2.70347e-014
lhumerus -59.843 -11.539 93.6012
lradius 113.709
lwrist 27.1998
lhand 0.633577 -9.28878
lfingers 7.12502
lthumb 26.1971 18.9234
rfemur -18.238 5.62954 19.5236
rtibia 62.4559
rfoot -16.3019 -2.27381
rtoes -4.81926
lfemur -12.6526 -26.2436 -9.09713
ltibia 37.2648
lfoot -16.9769 -15.4533
ltoes -17.575
2954
root -18.2685 17.2603 28.7007 -180.891 322.071 -184.944
lowerback 15.8021 2.6885 -0.794957
upperback 2.64882 3.0768 -1.30621
thorax -5.99464 1.40059 -1.55741
lowerneck -2.88078 1.15331 -4.90339
upperneck 9.77814 1.38247 3.42052
head 3.63998 0.574972 2.05698
rclavicle 1.30428e-013 -1.88845e-014
rhumerus -47.4025 24.9763 -111.81
rradius 69.5557
rwrist 0.255503
rhand -15.9992 26.2702
rfingers 7.12502
rthumb 10.2009 -3.46248
lclavicle 1.30428e-013 -1.88845e-014
lhumerus -60.2098 -12.3129 92.9361
lradius 113.945
lwrist 27.4903
lhand 1.05296 -9.50805
lfingers 7.12502
lthumb 26.5985 18.6439
rfemur -18.6883 5.16832 19.308
rtibia 64.178
rfoot -16.5515 -1.94646
rtoes -4.69703
lfemur -11.4847 -24.6745 -9.48416
ltibia 37.2291
lfoot -18.7582 -16.9044
ltoes -16.7822
2955
root -18.4074 17.1589 28.8415 -181.639 324.276 -184.848
lowerback 16.4414 2.96972 -0.789061
upperback 2.7776 3.40168 -1.39083
thorax -6.19383 1.54299 -1.74593
lowerneck -2.7175 1.40214 -4.78469
upperneck 9.81223 1.71958 3.14843
head 3.6043 0.730831 1.95278
rclavicle -4.79816e-014 9.54166e-015
rhumerus -47.0954 25.5803 -112.218
rradius 70.2274
rwrist 0.375578
rhand -16.1742 26.3499
rfingers 7.12502
rthumb 10.0321 -3.39098
lclavicle -4.79816e-014 9.54166e-015
lhumerus -60.6274 -12.9143 92.3123
lradius 114.117
lwrist 27.7552
lhand 1.51506 -9.93613
lfingers 7.12502
lthumb 27.0407 18.1479
rfemur -18.8269 4.70615 19.1444
rtibia 65.8462
rfoot -16.7767 -1.54195
rtoes -4.74249
lfemur -10.0884 -23.0347 -10.0247
ltibia 37.2857
lfoot -20.5311 -18.1396
ltoes -15.1449
2956
root -18.5448 17.0559 28.9808 -182.374 326.382 -184.845
lowerback 17.1327 3.2357 -0.747714
upperback 2.92092 3.70151 -1.52789
thorax -6.39729 1.66888 -2.01231
lowerneck -2.49732 1.63455 -4.7502
upperneck 9.7742 2.02711 3.00409
head 3.5347 0.875118 1.90339
rclavicle 4.32605e-014 6.65929e-015
rhumerus -46.569 25.9651 -112.515
rradius 70.626
rwrist 0.62677
rhand -16.3186 26.5626
rfingers 7.12502
rthumb 9.89282 -3.18493
lclavicle 4.32605e-014 6.65929e-015
lhumerus -61.0308 -13.6454 91.5954
lradius 114.278
lwrist 28.047
lhand 1.85512 -10.2667
lfingers 7.12502
lthumb 27.366 17.7664
rfemur -18.8336 4.2707 18.9343
rtibia 67.4314
rfoot -16.9747 -0.898453
rtoes -4.34318
lfemur -8.71894 -21.3928 -10.6491
ltibia 37.4435
lfoot -22.0984 -19.2351
ltoes -12.1913
2957
root -18.6811 16.9644 29.116 -182.995 328.419 -184.945
lowerback 17.7559 3.46819 -0.720235
upperback 3.05645 3.95049 -1.70433
thorax -6.56771 1.76906 -2.30284
lowerneck -2.35149 1.85324 -4.73176
upperneck 9.80231 2.32097 2.83418
head 3.5041 1.01035 1.85007
rclavicle 1.68222e-014 1.15295e-014
rhumerus -45.9278 26.2261 -112.802
rradius 70.9762
rwrist 1.12555
rhand -16.5497 26.799
rfingers 7.12502
rthumb 9.66983 -2.95901
lclavicle 1.68222e-014 1.15295e-014
lhumerus -61.2274 -14.3217 90.8061
lradius 114.242
lwrist 28.3063
lhand 2.2939 -10.4589
lfingers 7.12502
lthumb 27.7856 17.5072
rfemur -18.8165 3.92478 18.6648
rtibia 68.9003
rfoot -17.0445 -0.211208
rtoes -3.11822
lfemur -7.41329 -19.5709 -11.4055
ltibia 37.6504
lfoot -24.0678 -19.8656
ltoes -10.8272
2958
root -18.8145 16.887 29.2441 -183.344 330.373 -185.102
lowerback 18.1432 3.66265 -0.750104
upperback 3.07851 4.15313 -1.89712
thorax -6.73414 1.85314 -2.56215
lowerneck -2.01849 2.09539 -4.76607
upperneck 9.71037 2.63696 2.70318
head 3.39499 1.15673 1.81329
rclavicle 9.446e-014 -8.94531e-016
rhumerus -45.429 26.2246 -113.111
rradius 71.09
rwrist 1.91391
rhand -16.8753 27.2356
rfingers 7.12502
rthumb 9.3557 -2.5368
lclavicle 9.446e-014 -8.94531e-016
lhumerus -61.3588 -15.1599 89.954
lradius 114.033
lwrist 28.6201
lhand 2.3249 -10.309
lfingers 7.12502
lthumb 27.8153 17.6523
rfemur -19.0106 3.60242 18.3594
rtibia 70.2384
rfoot -17.0816 0.453174
rtoes -1.90155
lfemur -6.43657 -17.6648 -12.1694
ltibia 37.9048
lfoot -26.227 -19.9461
ltoes -10.8639
